<?xml version="1.0" encoding="UTF-8" standalone="no"?>
<svg
   xmlns:dc="http://purl.org/dc/elements/1.1/"
   xmlns:cc="http://creativecommons.org/ns#"
   xmlns:rdf="http://www.w3.org/1999/02/22-rdf-syntax-ns#"
   xmlns:svg="http://www.w3.org/2000/svg"
   xmlns="http://www.w3.org/2000/svg"
   xmlns:sodipodi="http://sodipodi.sourceforge.net/DTD/sodipodi-0.dtd"
   xmlns:inkscape="http://www.inkscape.org/namespaces/inkscape"
   width="137.00598mm"
   height="30.388252mm"
   viewBox="0 0 137.00598 30.388252"
   version="1.1"
   id="svg8"
   inkscape:version="1.0.1 (3bc2e813f5, 2020-09-07)"
   sodipodi:docname="logo-h-gr.svg">
  <defs
     id="defs2" />
  <sodipodi:namedview
     id="base"
     pagecolor="#ffffff"
     bordercolor="#666666"
     borderopacity="1.0"
     inkscape:pageopacity="0.0"
     inkscape:pageshadow="2"
     inkscape:zoom="1.4"
     inkscape:cx="229.06315"
     inkscape:cy="85.975443"
     inkscape:document-units="mm"
     inkscape:current-layer="layer1-0"
     inkscape:document-rotation="0"
     showgrid="false"
     inkscape:object-nodes="true"
     inkscape:snap-smooth-nodes="true"
     fit-margin-top="0"
     fit-margin-left="0"
     fit-margin-right="0"
     fit-margin-bottom="0"
     inkscape:window-width="1366"
     inkscape:window-height="745"
     inkscape:window-x="-8"
     inkscape:window-y="-8"
     inkscape:window-maximized="1" />
  <metadata
     id="metadata5">
    <rdf:RDF>
      <cc:Work
         rdf:about="">
        <dc:format>image/svg+xml</dc:format>
        <dc:type
           rdf:resource="http://purl.org/dc/dcmitype/StillImage" />
        <dc:title></dc:title>
      </cc:Work>
    </rdf:RDF>
  </metadata>
  <g
     inkscape:label="Layer 1"
     inkscape:groupmode="layer"
     id="layer1"
     transform="translate(-10.54005,-71.570398)">
    <g
       inkscape:label="Layer 1"
       id="layer1-0"
       transform="translate(-179.80061,137.00515)">
      <path
         style="fill:#778811;fill-opacity:1;stroke-width:0.234641"
         d="m 260.04655,-37.509152 c -0.93951,-0.154201 -1.88152,-0.581451 -1.75025,-0.793834 0.15368,-0.248672 -0.76864,-0.754574 -1.05408,-0.578167 -0.11743,0.0726 -0.27856,0.02685 -0.35798,-0.101667 -0.0938,-0.151774 -0.29417,-0.140138 -0.57173,0.03321 -0.4619,0.288458 -1.19342,0.123508 -1.19342,-0.269114 0,-0.133102 0.36957,-0.242004 0.82124,-0.242004 1.02477,0 1.05999,-0.387401 0.11731,-1.290523 -0.38715,-0.370921 -0.70392,-0.912648 -0.70392,-1.203839 0,-0.339431 -0.25262,-0.678666 -0.70392,-0.945252 -0.38716,-0.228701 -0.70393,-0.51293 -0.70393,-0.631623 0,-0.118687 -0.27197,-0.467864 -0.60439,-0.775936 -0.33241,-0.308074 -0.55703,-0.68974 -0.49914,-0.848148 0.058,-0.158412 -0.0783,-0.499194 -0.30267,-0.757299 -0.47005,-0.540767 -0.809,-1.994446 -0.46507,-1.994446 0.12579,0 0.22879,-0.10559 0.22879,-0.234641 0,-0.129053 -0.18479,-0.23699 -0.41062,-0.23986 -0.33279,-0.0043 -0.29942,-0.0922 0.17598,-0.464062 0.64472,-0.5043 2.44469,-0.645089 2.71227,-0.212144 0.15142,0.244984 5.1353,0.201662 16.9753,-0.147561 2.06613,-0.06094 3.72769,-0.01282 3.87848,0.112335 0.16404,0.136143 1.63666,0.105868 3.89384,-0.08005 3.51206,-0.289286 9.82201,-0.338874 11.02119,-0.08662 0.32263,0.06787 1.25682,0.02154 2.07598,-0.102933 1.53123,-0.232698 2.61684,-0.115561 2.61684,0.28234 0,0.124129 -0.29037,0.300596 -0.64527,0.392136 l -0.64525,0.166436 0.82124,0.186393 c 0.45168,0.102514 1.06945,0.130539 1.37281,0.06227 0.30336,-0.06827 0.90237,-0.0084 1.33114,0.133167 0.9657,0.318708 3.6128,0.452627 3.77453,0.190958 0.0656,-0.106045 -0.0456,-0.192801 -0.24666,-0.192801 -0.2012,0 -0.36581,-0.10559 -0.36581,-0.234643 0,-0.129052 0.20496,-0.234639 0.45544,-0.234639 0.25048,0 0.52068,-0.10559 0.60045,-0.234641 0.0797,-0.129053 0.77232,-0.234641 1.53901,-0.234641 0.77291,0 1.394,-0.10454 1.394,-0.234641 0,-0.129053 -0.323,-0.23464 -0.71778,-0.23464 -0.41875,0 -0.65736,-0.09774 -0.57275,-0.234641 0.2057,-0.332829 2.02191,-0.28339 4.28328,0.116599 3.59048,0.635076 7.34932,0.884199 8.25054,0.546815 0.39994,-0.149721 0.63002,-0.123166 0.78045,0.09008 0.16857,0.238981 0.23823,0.24097 0.33218,0.0095 0.0736,-0.181368 0.35719,-0.243338 0.74472,-0.162743 1.80865,0.376147 2.62028,0.663612 2.62028,0.928049 0,0.325017 0.7223,0.575337 1.67434,0.580272 0.34014,0.0019 0.90367,0.151187 1.25231,0.33206 0.55882,0.289923 0.58666,0.355275 0.23512,0.552005 -0.33319,0.186467 -0.26905,0.255683 0.39018,0.421067 0.77686,0.194896 0.77099,0.199222 -0.38428,0.283316 -1.36333,0.09924 -1.82564,0.400236 -0.95164,0.619596 0.49825,0.125053 0.55447,0.20976 0.31171,0.469629 -0.16289,0.174383 -0.41803,0.270297 -0.56698,0.213142 -0.14894,-0.05716 -0.33366,-0.0022 -0.4105,0.12213 -0.24262,0.392553 0.49665,0.495866 1.90167,0.265752 0.74702,-0.122345 1.67204,-0.223061 2.05562,-0.22381 l 0.6974,-0.0014 -0.51997,0.51998 c -0.44363,0.443626 -0.81307,0.528458 -2.51588,0.577716 l -1.99588,0.05778 v -0.82302 c 0,-0.56097 -0.18339,-1.0064 -0.57594,-1.398958 -0.49417,-0.494169 -0.79399,-0.575937 -2.11177,-0.575937 -0.86747,0 -1.53583,0.10211 -1.53583,0.234641 0,0.129053 0.10554,0.234641 0.23464,0.234641 0.13408,0 0.23464,0.703922 0.23464,1.642485 0,0.938564 -0.1006,1.642485 -0.23464,1.642485 -0.12905,0 -0.23464,-0.316765 -0.23464,-0.703921 0,-0.547494 -0.10427,-0.703922 -0.46928,-0.703922 -0.365,0 -0.46928,0.156428 -0.46928,0.703922 0,0.547493 -0.10428,0.703921 -0.46929,0.703921 -0.42458,0 -0.46928,-0.156428 -0.46928,-1.642485 0,-0.938563 0.10061,-1.642485 0.23464,-1.642485 0.12905,0 0.23464,-0.105589 0.23464,-0.234641 0,-0.129052 -0.42234,-0.234641 -0.93856,-0.234641 -0.5162,0 -0.93856,0.10559 -0.93856,0.234641 0,0.129053 0.10554,0.234641 0.23464,0.234641 0.13409,0 0.23464,0.703922 0.23464,1.642485 0,1.478937 -0.0461,1.642485 -0.46325,1.642485 -0.27384,0 -0.60711,-0.278171 -0.81508,-0.680319 -0.30974,-0.599003 -0.31047,-0.714623 -0.006,-0.967294 0.41677,-0.345882 0.45506,-1.434228 0.0642,-1.82507 -0.33906,-0.339065 -3.00341,-0.380695 -3.00341,-0.04694 0,0.129052 0.10567,0.234639 0.23466,0.234639 0.13407,0 0.23463,0.703923 0.23463,1.642485 0,0.938564 -0.10061,1.642487 -0.23463,1.642487 -0.12905,0 -0.23466,0.10559 -0.23466,0.23464 0,0.129052 0.42236,0.234641 0.93858,0.234641 0.51621,0 0.93855,-0.10559 0.93855,-0.234641 0,-0.129053 -0.10554,-0.23464 -0.23464,-0.23464 -0.12905,0 -0.23464,-0.316767 -0.23464,-0.703923 0,-0.971517 0.31836,-0.880556 0.82126,0.234641 l 0.42321,0.938563 2.60409,0.03595 c 1.43223,0.01978 3.20548,0.0095 3.94053,-0.02276 1.77359,-0.07794 3.54573,0.211957 2.88707,0.472282 -0.25811,0.102009 -0.80116,0.192895 -1.20676,0.201964 -0.42698,0.0095 -0.79435,0.164678 -0.87253,0.368455 -0.10415,0.271397 0.0647,0.35834 0.73747,0.379834 l 0.87254,0.02788 -1.17321,0.301562 c -0.64526,0.16586 -1.51636,0.3117 -1.93579,0.324086 -0.41941,0.0124 -0.76259,0.117118 -0.76259,0.232743 0,0.115625 0.42236,0.188652 0.93858,0.162296 0.51621,-0.02636 0.93856,0.03742 0.93856,0.141745 0,0.104312 -0.13198,0.197086 -0.2933,0.206157 -0.16132,0.0091 -0.0821,0.107235 0.17598,0.218148 0.36644,0.157462 0.38479,0.205271 0.0836,0.218147 -0.21203,0.0091 -0.44407,0.169092 -0.51565,0.355601 -0.0986,0.256984 -0.2993,0.290591 -0.82868,0.138767 -0.38419,-0.110184 -0.76177,-0.137119 -0.83905,-0.05984 -0.24927,0.249282 -2.19224,0.320351 -2.33739,0.08549 -0.0893,-0.144639 -0.38762,-0.134077 -0.81974,0.02903 -0.53388,0.201518 -0.79726,0.181817 -1.23084,-0.09206 -0.3034,-0.191646 -0.76281,-0.302129 -1.02091,-0.245518 l -0.46928,0.102933 0.46928,0.20662 c 0.38194,0.168169 0.35325,0.184301 -0.1542,0.0867 -0.3429,-0.06597 -0.79164,-0.184466 -0.9972,-0.26335 -0.2587,-0.09927 -0.37488,-0.0092 -0.37736,0.2923 -0.003,0.288662 -0.0638,0.341139 -0.18176,0.155484 -0.13045,-0.205192 -0.44769,-0.219682 -1.18463,-0.0541 -0.55357,0.124382 -1.10045,0.168065 -1.21531,0.09709 -0.33136,-0.204796 -1.41588,0.144892 -1.25528,0.404748 0.16899,0.273424 -0.90159,-0.01152 -1.08689,-0.289292 -0.0645,-0.09673 -0.3285,-0.228631 -0.5866,-0.293116 -0.34194,-0.08543 -0.28358,-0.124635 0.21509,-0.144465 0.3764,-0.01497 0.62625,-0.08534 0.55521,-0.156384 -0.1473,-0.147295 -1.51678,-0.263007 -5.26396,-0.444778 -2.68088,-0.130056 -3.36679,-0.257254 -3.36679,-0.624376 0,-0.115245 -0.16462,-0.209537 -0.36582,-0.209537 -0.20119,0 -0.30054,-0.105589 -0.22078,-0.234639 0.0858,-0.138964 -0.17158,-0.23081 -0.63143,-0.225247 l -0.77642,0.0094 0.64526,0.350059 c 0.35488,0.192534 0.64527,0.428519 0.64527,0.524409 0,0.18892 -3.49747,0.154013 -5.25277,-0.05243 -0.85654,-0.10073 -1.08254,-0.05483 -1.08254,0.219857 0,0.194055 -0.21308,0.347164 -0.48314,0.347164 -0.26572,0 -0.41786,-0.10559 -0.3381,-0.23464 0.17978,-0.290898 -0.4106,-0.311783 -0.71565,-0.02532 -0.3281,0.308104 -3.85985,0.502401 -3.85985,0.21235 0,-0.130482 -0.15839,-0.176463 -0.35196,-0.102186 -0.2144,0.08227 -0.35195,4.7e-4 -0.35195,-0.209536 0,-0.189528 -0.0939,-0.344599 -0.20859,-0.344599 -0.11465,0 -0.1939,0.184781 -0.17597,0.410622 0.0266,0.335063 -0.1617,0.410622 -1.02329,0.410622 -0.79227,0 -1.0502,0.08787 -1.0331,0.351961 0.0137,0.210774 -0.19815,0.365535 -0.52795,0.385799 -0.58114,0.0357 -0.75534,-0.271667 -0.25742,-0.454237 0.23435,-0.08592 0.23411,-0.170274 -8.9e-4,-0.419662 -0.22994,-0.243688 -0.50003,-0.257265 -1.23186,-0.06193 -0.51553,0.137605 -0.93734,0.158038 -0.93734,0.0454 0,-0.112638 -1.08227,-0.147816 -2.40506,-0.07818 -2.26019,0.118978 -2.4368,0.165083 -2.93184,0.765325 -0.41534,0.503605 -0.52703,0.551857 -0.52794,0.2281 -7e-4,-0.225842 0.1044,-0.410621 0.23341,-0.410621 0.12907,0 0.23466,-0.112107 0.23466,-0.249114 0,-0.156625 -0.32669,-0.196515 -0.87991,-0.107438 -0.48394,0.07791 -1.35505,0.192231 -1.93579,0.25402 -0.58074,0.06179 -1.53103,0.209364 -2.11176,0.327939 -2.21358,0.451973 -2.8655,0.514295 -2.70763,0.258842 0.21856,-0.353623 -0.57946,-0.296732 -1.28058,0.09129 -0.39174,0.216811 -0.67803,0.247815 -0.8639,0.09356 -0.18274,-0.151669 -0.58492,-0.145477 -1.17389,0.01807 -0.90313,0.250789 -1.34696,0.267509 -2.42107,0.09121 z m 57.72162,-1.482298 c 0,-0.129053 -0.0993,-0.234641 -0.22079,-0.234641 -0.12149,0 -0.28606,0.10559 -0.36581,0.234641 -0.0797,0.129052 0.0196,0.234641 0.2208,0.234641 0.20118,0 0.3658,-0.10559 0.3658,-0.234641 z m 0.87502,0.09287 c -0.0779,-0.07796 -0.28035,-0.0863 -0.44973,-0.01851 -0.18718,0.0749 -0.13159,0.130503 0.14177,0.14176 0.24734,0.01012 0.38592,-0.04528 0.30796,-0.123243 z m -3.45607,-0.330786 c 0.24763,-0.162322 0.10845,-0.186043 -0.46928,-0.08001 -1.01196,0.185694 -1.20284,0.319107 -0.44973,0.314337 0.31189,-0.0019 0.72544,-0.107412 0.91901,-0.234314 z m -35.78271,-0.231375 c 0.0864,-0.139911 -0.19772,-0.234639 -0.70392,-0.234639 -0.50621,0 -0.7904,0.09473 -0.70393,0.234639 0.0797,0.129053 0.39653,0.234641 0.70393,0.234641 0.30739,0 0.62416,-0.105589 0.70392,-0.234641 z m 21.35231,0 c -0.0868,-0.14053 0.20873,-0.234639 0.737,-0.234639 0.51229,0 0.78858,-0.08519 0.65911,-0.203235 -0.12262,-0.111778 -0.75085,-0.125888 -1.39611,-0.03135 -0.64526,0.09453 -1.03498,0.185991 -0.86606,0.203234 0.16894,0.01725 0.24189,0.136939 0.16213,0.265992 -0.0797,0.129052 0.0787,0.234641 0.35196,0.234641 0.27334,0 0.43173,-0.10559 0.35197,-0.234643 z m 12.05248,-0.02444 c -0.43331,-0.274515 -1.90799,-0.266307 -1.73742,0.0096 0.0748,0.120927 0.56833,0.213901 1.09689,0.206606 0.63518,-0.0087 0.85235,-0.08209 0.64053,-0.216275 z m -8.18091,-0.210198 c 0,-0.129053 -0.44875,-0.233024 -0.99722,-0.231049 -0.73032,0.0027 -0.90301,0.06448 -0.64527,0.231049 0.4633,0.299404 1.64249,0.299404 1.64249,0 z m 6.03712,0.09287 c -0.078,-0.07796 -0.28037,-0.0863 -0.44973,-0.01851 -0.18719,0.0749 -0.13159,0.130503 0.14175,0.141762 0.24736,0.01012 0.38594,-0.04528 0.30798,-0.123243 z m 3.49841,-0.268859 c -0.0248,-0.312459 0.17776,-0.42803 0.84732,-0.483447 1.62083,-0.134143 0.90186,-0.513288 -1.05587,-0.556816 -3.69685,-0.08219 -4.20874,-0.07349 -4.30008,0.07313 -0.14422,0.231537 1.22295,0.439188 2.89162,0.439188 1.24879,0 1.4773,0.05696 1.26323,0.31489 -0.14373,0.173189 -0.19185,0.384365 -0.10693,0.469282 0.28,0.279988 0.49386,0.161051 0.46073,-0.25623 z M 292.251,-40.085427 c -0.16132,-0.06509 -0.4253,-0.06509 -0.5866,0 -0.16133,0.06509 -0.0294,0.118346 0.29329,0.118346 0.32263,0 0.45462,-0.05325 0.29331,-0.118346 z m 25.28253,-0.651995 c 0,-0.05691 -0.10554,-0.168731 -0.23464,-0.248489 -0.12905,-0.07976 -0.23464,-0.03319 -0.23464,0.103477 0,0.13667 0.10554,0.24849 0.23464,0.24849 0.12905,0 0.23464,-0.04656 0.23464,-0.103476 z m 1.64249,-0.131169 c 0,-0.129053 -0.29037,-0.227219 -0.64527,-0.218149 -0.57178,0.01462 -0.59181,0.03946 -0.17597,0.218149 0.64089,0.2754 0.82124,0.2754 0.82124,0 z m -16.95768,-0.141763 c -0.078,-0.07796 -0.28036,-0.0863 -0.44973,-0.01851 -0.18718,0.0749 -0.13158,0.130503 0.14176,0.141762 0.24736,0.01012 0.38594,-0.04528 0.30797,-0.123243 z m 18.01357,-0.562159 c 0.0797,-0.129053 0.0395,-0.234641 -0.0896,-0.234641 -0.12905,0 -0.2999,0.10559 -0.37966,0.234641 -0.0797,0.129053 -0.0395,0.234641 0.0896,0.234641 0.12905,0 0.2999,-0.10559 0.37967,-0.234641 z m -60.46692,-0.750852 c 0.32054,-0.320547 0.38096,-1.506424 0.0861,-1.688698 -0.10756,-0.06646 -0.1482,-0.443219 -0.0904,-0.83724 0.15657,-1.066816 -0.27186,-1.416026 -1.7373,-1.416026 -0.69399,0 -1.26179,0.105589 -1.26179,0.234641 0,0.129052 0.10554,0.234641 0.23464,0.234641 0.13408,0 0.23465,0.703922 0.23465,1.642484 0,0.938564 -0.10061,1.642486 -0.23465,1.642486 -0.12905,0 -0.23464,0.10559 -0.23464,0.234641 0,0.333767 2.66433,0.292137 3.00341,-0.04694 z m -1.59557,-0.891634 c 0,-0.716333 0.14112,-0.815123 0.80205,-0.561498 0.48008,0.184224 0.48008,0.938771 0,1.122995 -0.66093,0.253626 -0.80205,0.154835 -0.80205,-0.561497 z m 0,-1.877126 c 0,-0.760829 0.0134,-0.774093 0.56742,-0.561499 0.6865,0.263439 0.31492,1.26542 -0.46929,1.26542 -0.054,0 -0.0981,-0.316764 -0.0981,-0.703921 z m 5.86602,2.463727 c 0,-0.364998 -0.13297,-0.586601 -0.35195,-0.586601 -0.19358,0 -0.35198,0.158382 -0.35198,0.35196 0,0.245815 -0.24767,0.351962 -0.82124,0.351962 -0.75605,0 -0.82123,-0.05587 -0.82123,-0.703922 0,-0.648055 0.0652,-0.703923 0.82123,-0.703923 0.45169,0 0.82124,-0.105589 0.82124,-0.234641 0,-0.129051 -0.36955,-0.234641 -0.82124,-0.234641 -0.75605,0 -0.82123,-0.05587 -0.82123,-0.703921 0,-0.648055 0.0652,-0.703922 0.82123,-0.703922 0.66483,0 0.82124,0.08938 0.82124,0.469281 0,0.260711 0.15644,0.46928 0.35198,0.46928 0.23463,0 0.35195,-0.234639 0.35195,-0.703921 v -0.703922 h -1.87712 c -1.095,0 -1.87713,0.09777 -1.87713,0.234641 0,0.129052 0.15838,0.234641 0.35196,0.234641 0.27934,0 0.35197,0.338923 0.35197,1.642484 0,1.303561 -0.0726,1.642486 -0.35197,1.642486 -0.19358,0 -0.35196,0.10559 -0.35196,0.234641 0,0.136873 0.78213,0.23464 1.87713,0.23464 1.84585,0 1.87712,-0.0097 1.87712,-0.586602 z m 2.7293,0.326296 c 0.17656,-0.14654 0.32103,-0.571646 0.32103,-0.944677 0,-0.571416 -0.16631,-0.759039 -1.05588,-1.191229 -1.02604,-0.498489 -1.31161,-0.937656 -0.81092,-1.247097 0.13473,-0.08327 0.50057,0.0161 0.81298,0.220792 0.74598,0.488789 0.81918,0.473029 0.81918,-0.176372 0,-0.485472 -0.11807,-0.553022 -1.0265,-0.587385 -1.81096,-0.0685 -2.17968,1.371904 -0.54746,2.138738 0.98594,0.463214 1.3473,1.046008 0.84557,1.363702 -0.47957,0.30366 -0.63996,0.266031 -1.08586,-0.254729 -0.55127,-0.643852 -0.76679,-0.588596 -0.76679,0.196599 0,0.629651 0.0591,0.668114 1.0868,0.706987 0.59775,0.02263 1.23128,-0.07879 1.40785,-0.225329 z m 3.13672,0.02566 c 0,-0.129052 -0.10554,-0.234641 -0.23464,-0.234641 -0.13409,0 -0.23464,-0.703921 -0.23464,-1.642485 0,-1.303561 0.0726,-1.642485 0.35196,-1.642485 0.219,0 0.35196,0.221603 0.35196,0.586601 0,0.364999 0.13296,0.586603 0.35196,0.586603 0.24582,0 0.35197,-0.247678 0.35197,-0.821244 v -0.821242 h -1.75981 -1.75981 v 0.821242 c 0,0.573566 0.10617,0.821244 0.35197,0.821244 0.21899,0 0.35195,-0.221604 0.35195,-0.586603 0,-0.364998 0.13297,-0.586601 0.35197,-0.586601 0.27933,0 0.35196,0.338924 0.35196,1.642485 0,0.938564 -0.10061,1.642485 -0.23464,1.642485 -0.12906,0 -0.23465,0.10559 -0.23465,0.234641 0,0.129053 0.36957,0.23464 0.82125,0.23464 0.45169,0 0.82124,-0.10559 0.82124,-0.23464 z m 6.58799,-0.451234 c 0.87438,-0.874382 0.90123,-1.837886 0.0785,-2.815732 -1.10541,-1.313702 -3.34418,-0.831058 -3.75599,0.809733 -0.55599,2.215228 2.04797,3.635607 3.67757,2.005999 z m -2.31225,-0.148672 c -0.75483,-0.528711 -0.73483,-2.065175 0.0334,-2.56857 1.44402,-0.946156 2.80812,1.213279 1.55684,2.464553 -0.56476,0.564762 -0.90106,0.58676 -1.59028,0.104021 z m 5.10989,0.599906 c 0,-0.129052 -0.10554,-0.234641 -0.23464,-0.234641 -0.12905,0 -0.23464,-0.316765 -0.23464,-0.703921 0,-0.594423 0.0912,-0.703923 0.5866,-0.703923 0.32263,0 0.5866,-0.10559 0.5866,-0.234641 0,-0.129052 -0.26397,-0.234641 -0.5866,-0.234641 -0.49535,0 -0.5866,-0.1095 -0.5866,-0.703922 0,-0.625709 0.0782,-0.703922 0.70392,-0.703922 0.54749,0 0.70392,0.104287 0.70392,0.469281 0,0.260712 0.15643,0.469281 0.35196,0.469281 0.23465,0 0.35197,-0.23464 0.35197,-0.703922 v -0.703922 h -1.75981 c -1.01677,0 -1.75981,0.09907 -1.75981,0.234641 0,0.129053 0.10567,0.234641 0.23465,0.234641 0.13408,0 0.23463,0.703922 0.23463,1.642485 0,0.938564 -0.1006,1.642485 -0.23463,1.642485 -0.12905,0 -0.23465,0.10559 -0.23465,0.234641 0,0.129053 0.42236,0.23464 0.93856,0.23464 0.51622,0 0.93857,-0.10559 0.93857,-0.23464 z m 6.05373,-0.04693 c 0.32055,-0.320547 0.38098,-1.506424 0.0861,-1.688698 -0.10756,-0.06646 -0.14821,-0.44322 -0.0904,-0.83724 0.15657,-1.066816 -0.27186,-1.416026 -1.73729,-1.416026 -0.69397,0 -1.26178,0.10559 -1.26178,0.234641 0,0.129052 0.10554,0.23464 0.23463,0.23464 0.13408,0 0.23465,0.703923 0.23465,1.642485 0,0.938563 -0.1006,1.642486 -0.23465,1.642486 -0.12906,0 -0.23463,0.10559 -0.23463,0.23464 0,0.333768 2.66433,0.292138 3.00339,-0.04694 z m -1.59555,-0.891635 c 0,-0.716332 0.14111,-0.815124 0.80204,-0.561497 0.7531,0.28899 0.30047,1.26542 -0.5866,1.26542 -0.11844,0 -0.21544,-0.316765 -0.21544,-0.703923 z m 0,-1.877125 c 0,-0.760828 0.0134,-0.774093 0.5674,-0.561499 0.68651,0.263439 0.31492,1.26542 -0.46928,1.26542 -0.054,0 -0.0981,-0.316764 -0.0981,-0.703921 z m 6.1187,2.364455 c 0.87439,-0.874384 0.90122,-1.837886 0.0783,-2.815732 -1.1054,-1.313703 -3.34417,-0.831059 -3.75598,0.809732 -0.55599,2.215228 2.04797,3.635607 3.67757,2.006 z m -2.31225,-0.148672 c -0.75484,-0.528712 -0.73483,-2.065175 0.0334,-2.56857 1.44403,-0.946157 2.80813,1.213278 1.55684,2.464553 -0.56476,0.564762 -0.90105,0.58676 -1.59027,0.104021 z m 5.81382,0.599905 c 0,-0.129053 -0.10554,-0.23464 -0.23464,-0.23464 -0.13409,0 -0.23465,-0.703923 -0.23465,-1.642486 0,-1.303561 0.0726,-1.642485 0.35197,-1.642485 0.219,0 0.35196,0.221604 0.35196,0.586602 0,0.364998 0.13296,0.586603 0.35196,0.586603 0.219,0 0.35196,-0.221605 0.35196,-0.586603 0,-0.322631 0.10554,-0.586602 0.23464,-0.586602 0.13409,0 0.23464,0.703923 0.23464,1.642485 0,0.938563 -0.1006,1.642486 -0.23464,1.642486 -0.12906,0 -0.23464,0.10559 -0.23464,0.23464 0,0.129052 0.42235,0.234641 0.93856,0.234641 0.51621,0 0.93857,-0.10559 0.93857,-0.234641 0,-0.129053 -0.10554,-0.23464 -0.23464,-0.23464 -0.12907,0 -0.23464,-0.316765 -0.23464,-0.703923 0,-0.648054 0.0652,-0.703922 0.82123,-0.703922 0.75607,0 0.82125,0.05587 0.82125,0.703922 0,0.387158 -0.10566,0.703923 -0.23465,0.703923 -0.12905,0 -0.23463,0.10559 -0.23463,0.23464 0,0.129052 0.36955,0.234641 0.82124,0.234641 0.45168,0 0.82124,-0.10559 0.82124,-0.234641 0,-0.129053 -0.10554,-0.23464 -0.23463,-0.23464 -0.13409,0 -0.23464,-0.703923 -0.23464,-1.642486 0,-0.938562 0.1006,-1.642485 0.23464,-1.642485 0.12905,0 0.23463,-0.10559 0.23463,-0.23464 0,-0.129053 -0.36956,-0.234641 -0.82124,-0.234641 -0.45169,0 -0.82124,0.10559 -0.82124,0.234641 0,0.129052 0.10554,0.23464 0.23463,0.23464 0.12905,0 0.23465,0.316765 0.23465,0.703923 0,0.648054 -0.0652,0.703921 -0.82125,0.703921 -0.75606,0 -0.82123,-0.05587 -0.82123,-0.703921 0,-0.387158 0.10554,-0.703923 0.23464,-0.703923 0.12905,0 0.23464,-0.10559 0.23464,-0.23464 0,-0.142826 -1.0559,-0.234641 -2.69837,-0.234641 h -2.69837 v 0.821242 c 0,0.573566 0.10617,0.821244 0.35196,0.821244 0.219,0 0.35196,-0.221605 0.35196,-0.586603 0,-0.364998 0.13296,-0.586602 0.35196,-0.586602 0.27934,0 0.35196,0.338924 0.35196,1.642485 0,0.938563 -0.1006,1.642486 -0.23464,1.642486 -0.12905,0 -0.23464,0.10559 -0.23464,0.23464 0,0.129052 0.36955,0.234641 0.82124,0.234641 0.45168,0 0.82125,-0.10559 0.82125,-0.234641 z m 8.91634,-1.055883 c 0.17028,-0.709787 0.39075,-1.290523 0.48994,-1.290523 0.0992,0 0.31029,0.580736 0.46914,1.290523 0.21694,0.96939 0.39215,1.290524 0.7041,1.290524 0.39577,0 0.70318,-0.746439 1.28038,-3.10899 0.0867,-0.354893 0.25178,-0.645262 0.36685,-0.645262 0.11503,0 0.20921,-0.10559 0.20921,-0.23464 0,-0.129053 -0.36957,-0.234641 -0.82125,-0.234641 -0.77198,0 -1.13014,0.327207 -0.56454,0.515742 0.17946,0.05983 0.1564,0.429583 -0.0767,1.228948 l -0.3334,1.143384 -0.31817,-1.136431 c -0.24101,-0.860797 -0.25086,-1.158873 -0.0406,-1.228951 0.65123,-0.217074 0.19614,-0.522692 -0.77833,-0.522692 -0.58073,0 -1.05588,0.10559 -1.05588,0.234641 0,0.129052 0.091,0.23464 0.20209,0.23464 0.1111,0 0.0934,0.475147 -0.0395,1.055884 -0.13289,0.580736 -0.3076,1.055883 -0.38825,1.055883 -0.25478,0 -0.6989,-1.988509 -0.46293,-2.07266 0.52767,-0.18816 0.14854,-0.508388 -0.6019,-0.508388 -0.45168,0 -0.82125,0.10559 -0.82125,0.234641 0,0.129052 0.0909,0.23464 0.20205,0.23464 0.1111,0 0.44255,0.844707 0.73652,1.877126 0.67094,2.356344 1.17477,2.536282 1.64248,0.586602 z m 7.05728,0.60465 c 0.87438,-0.874384 0.90122,-1.837886 0.0785,-2.815732 -1.10541,-1.313703 -3.34418,-0.831059 -3.75599,0.809732 -0.556,2.215228 2.04797,3.635607 3.67758,2.006 z m -2.31226,-0.148672 c -0.75483,-0.528712 -0.73484,-2.065175 0.0334,-2.56857 1.44403,-0.946157 2.80811,1.213278 1.55684,2.464553 -0.56476,0.564762 -0.90106,0.58676 -1.59027,0.104021 z m 18.24977,-1.28169 c 0,-0.141949 -0.2622,-0.176209 -0.64525,-0.08432 -0.9212,0.220997 -0.95216,0.323425 -0.0978,0.323425 0.40866,0 0.74302,-0.107602 0.74302,-0.239111 z m -6.86812,-4.595467 c -0.078,-0.07796 -0.28035,-0.08631 -0.44973,-0.01851 -0.18719,0.0749 -0.13159,0.130503 0.14177,0.141762 0.24734,0.01012 0.38593,-0.04528 0.30796,-0.123243 z m -47.84717,11.009592 c 0.16939,-0.06778 0.37177,-0.05944 0.44974,0.01851 0.0779,0.07796 -0.0606,0.133426 -0.30797,0.123243 -0.27333,-0.01126 -0.32894,-0.06685 -0.14177,-0.14176 z m 4.97147,-0.308996 c 0,-0.129052 0.10553,-0.234641 0.23462,-0.234641 0.12907,0 0.23464,0.10559 0.23464,0.234641 0,0.129053 -0.10553,0.234641 -0.23464,0.234641 -0.12905,0 -0.23462,-0.10559 -0.23462,-0.234641 z m 28.5636,-0.02912 c 0.15915,-0.160359 0.34849,-0.232452 0.42073,-0.160208 0.0723,0.07224 -0.058,0.203445 -0.28939,0.29156 -0.33441,0.127334 -0.36135,0.100388 -0.13134,-0.131352 z m 16.84174,-0.913274 c 0.0811,-0.131157 0.24567,-0.177722 0.36581,-0.103476 0.32546,0.20114 0.26477,0.341939 -0.14739,0.341939 -0.20119,0 -0.29948,-0.107311 -0.21842,-0.238468 z m 1.71345,-3.441429 c 0.16938,-0.06778 0.37176,-0.05944 0.44973,0.01851 0.078,0.07796 -0.0606,0.133426 -0.30798,0.123243 -0.27334,-0.01126 -0.32894,-0.06685 -0.14175,-0.14176 z m -3.9449,-1.737808 v -1.672393 l 0.64394,0.161623 c 0.97472,0.244637 1.23319,0.56568 1.23319,1.531737 0,0.961195 -0.24761,1.262156 -1.23187,1.497281 l -0.64526,0.154144 z m 2.71831,1.487867 c -0.29897,-0.298972 -0.095,-0.413874 0.84997,-0.4789 0.54261,-0.03733 0.9384,-0.02661 0.87956,0.02383 -0.26289,0.225343 -1.60589,0.578713 -1.72953,0.455074 z m 2.06529,0.0066 c 0.16845,-0.168432 1.81558,-0.107893 2.00142,0.07355 0.0538,0.0525 -0.41257,0.09545 -1.03633,0.09545 -0.62374,0 -1.05803,-0.07605 -0.96509,-0.169013 z m 3.38483,-0.695196 c 0.16937,-0.06778 0.37176,-0.05944 0.44973,0.01851 0.078,0.07796 -0.0606,0.133426 -0.30797,0.123243 -0.27335,-0.01126 -0.32894,-0.06685 -0.14176,-0.141761 z m -15.20766,-1.716835 c 0,-0.716334 0.14112,-0.815124 0.80206,-0.561499 0.7531,0.288991 0.30046,1.26542 -0.5866,1.26542 -0.11845,0 -0.21546,-0.316764 -0.21546,-0.703921 z m 14.18612,-0.250252 c -0.24076,-0.389553 -0.0247,-0.443572 0.3122,-0.07804 0.1664,0.180563 0.19904,0.328295 0.0725,0.328295 -0.12655,0 -0.29964,-0.112613 -0.38472,-0.250252 z m -4.9178,-2.800079 c -0.082,-0.132527 0.11022,-0.234641 0.44158,-0.234641 0.32263,0 0.65186,0.10559 0.73162,0.234641 0.082,0.132528 -0.11022,0.234641 -0.44159,0.234641 -0.32263,0 -0.65185,-0.10559 -0.73161,-0.234641 z m -9.26832,-1.877125 c 0.32264,-0.103325 0.74499,-0.196773 0.93856,-0.207661 0.31286,-0.01759 0.31286,0.0054 0,0.207661 -0.19357,0.125103 -0.61592,0.218545 -0.93856,0.207659 l -0.5866,-0.0198 z m -31.73516,-0.253437 c -0.554,-0.32267 -0.52771,-1.506597 0.0462,-2.080493 0.25125,-0.251242 0.79458,-0.631472 1.20741,-0.844955 0.7183,-0.371446 0.74255,-0.369459 0.56332,0.04619 -0.10301,0.238884 -0.23495,0.803893 -0.29323,1.255578 -0.0945,0.732865 -0.0677,0.783367 0.25027,0.46928 0.3338,-0.329794 1.1004,-2.551703 1.1004,-3.189402 0,-0.158695 -0.69458,0.177233 -1.54352,0.746511 -0.84894,0.569276 -1.73891,1.035048 -1.97769,1.035048 -0.72896,0 -1.17161,-0.661165 -1.17161,-1.750047 0,-2.70406 4.09015,-5.821875 6.26458,-4.775343 0.57376,0.276139 0.66517,0.464957 0.71897,1.485089 0.12187,2.31145 0.0633,2.890496 -0.4243,4.193791 -0.62187,1.662111 -1.36533,2.552781 -2.64991,3.174637 -1.1217,0.54301 -1.48978,0.584224 -2.09086,0.234126 z m 2.23817,-5.137435 c 0.71476,-0.674653 0.87453,-0.934318 0.57752,-0.938564 -0.49785,-0.0071 -0.49862,-0.01813 -0.0601,-0.858946 0.37969,-0.728023 0.47208,-1.727968 0.15966,-1.727968 -0.65647,0 -2.13808,2.630592 -2.14752,3.812913 -0.008,0.87395 0.30453,0.813056 1.47044,-0.287435 z m 26.40267,5.230585 c 0.16938,-0.06778 0.37175,-0.05944 0.44973,0.01851 0.0779,0.07796 -0.0606,0.133426 -0.30796,0.123242 -0.27335,-0.01126 -0.32896,-0.06685 -0.14177,-0.14176 z m -1.77448,-0.2361 c 0.22585,-0.05902 0.5954,-0.05902 0.82125,0 0.22584,0.05902 0.0411,0.107311 -0.41062,0.107311 -0.45169,0 -0.63647,-0.04829 -0.41063,-0.107311 z m 8.81371,0.0014 c 0.16937,-0.06778 0.37175,-0.05944 0.44973,0.01851 0.078,0.07796 -0.0606,0.133427 -0.30797,0.123242 -0.27336,-0.01126 -0.32895,-0.06685 -0.14176,-0.141761 z m 3.15299,-0.0078 c 0.35488,-0.05376 0.93561,-0.05376 1.29051,0 0.3549,0.05376 0.0645,0.09774 -0.64526,0.09774 -0.70979,0 -1.00016,-0.04399 -0.64525,-0.09774 z m -59.13442,-1.396748 c -0.52207,-0.210053 -0.99228,-1.425732 -0.99228,-2.565391 v -1.103253 l -1.39042,1.326242 c -1.51473,1.444795 -1.92255,1.583285 -2.44901,0.831649 -0.29612,-0.422778 -0.30139,-0.644227 -0.0363,-1.525165 0.17058,-0.566815 0.24129,-1.025445 0.15714,-1.019181 -0.0841,0.0063 -0.61409,0.575756 -1.17762,1.265533 -1.77735,2.175492 -2.85264,2.280753 -2.84167,0.278171 0.008,-1.43859 1.36516,-4.623359 2.15898,-5.065901 0.57262,-0.319234 0.67668,-0.318734 1.00023,0.0048 0.32197,0.321976 0.32357,0.485849 0.0147,1.511984 -0.19049,0.632979 -0.31445,1.182776 -0.27546,1.221768 0.039,0.03899 0.51735,-0.458577 1.06303,-1.105717 2.1232,-2.51799 3.92238,-2.269238 2.97599,0.411456 -0.19363,0.548472 -0.28087,0.997223 -0.19386,0.997223 0.0869,0 0.71774,-0.552603 1.40165,-1.228007 1.03489,-1.022046 1.3116,-1.184951 1.64985,-0.971277 0.35243,0.222628 0.40644,0.674075 0.40655,3.398434 8e-5,1.824558 -0.0983,3.213975 -0.23464,3.314092 -0.26328,0.193315 -0.78867,0.202887 -1.23695,0.02252 z m 3.14557,-1.502473 c -1.19471,-0.93976 -0.66131,-3.180118 1.18034,-4.957628 2.32652,-2.245486 5.20142,-1.954489 4.96708,0.502765 -0.0497,0.521551 0.0162,0.983828 0.14658,1.027277 0.13036,0.04346 0.25246,0.828669 0.27134,1.744931 0.0339,1.642262 0.0243,1.670069 -0.66936,1.957406 -0.94337,0.39076 -1.44935,0.04823 -1.54228,-1.044068 -0.0401,-0.470875 -0.15228,-0.856138 -0.24939,-0.856138 -0.0972,0 -0.4867,0.32619 -0.86574,0.724871 -0.73675,0.774915 -1.7465,1.386895 -2.28835,1.386895 -0.18258,0 -0.61019,-0.218839 -0.95022,-0.486311 z m 3.65134,-1.774687 c 0.99509,-0.689599 1.12411,-0.894461 0.42323,-0.67201 -0.54097,0.171696 -0.58493,-0.0737 -0.23149,-1.292074 0.25473,-0.878144 0.10199,-2.110217 -0.2616,-2.110217 -0.34421,0 -1.59662,2.107559 -1.75541,2.954037 -0.18209,0.970541 0.0613,1.738777 0.55056,1.738777 0.2102,0 0.78382,-0.27833 1.27471,-0.618513 z m 4.58811,2.007563 c -0.50216,-0.292473 -0.5279,-1.279604 -0.0774,-2.971483 0.68852,-2.586347 1.81945,-4.101974 2.53033,-3.39108 0.12937,0.129362 0.19794,0.762706 0.15237,1.407436 l -0.0829,1.172235 0.96307,-0.888193 c 1.11035,-1.024016 1.85483,-1.329138 2.31375,-0.94827 0.4774,0.39621 0.38061,5.333462 -0.1106,5.64404 -1.01026,0.638679 -1.87346,-0.252136 -1.88151,-1.941676 l -0.006,-1.231864 -0.87404,0.949462 c -0.48071,0.522204 -1.1652,1.28772 -1.5211,1.701146 -0.70596,0.820088 -0.79767,0.852587 -1.40603,0.498247 z m 16.74698,-0.05707 c -2.35519,-0.887316 -2.16235,-3.765158 0.38237,-5.706082 1.09054,-0.831773 2.94769,-1.277192 3.40761,-0.817273 0.19548,0.195475 0.10428,0.263927 -0.35159,0.263927 -1.48204,0 -3.04992,2.482976 -2.625,4.157067 0.25247,0.994625 0.74307,1.363788 1.54496,1.162527 1.17435,-0.294743 1.45522,-1.962762 0.55409,-3.29065 l -0.57834,-0.852231 0.684,-0.353718 c 0.91656,-0.473969 1.10075,-0.450895 1.77387,0.222224 0.78256,0.78256 0.80562,2.536302 0.048,3.651147 -0.97865,1.440101 -3.23348,2.168293 -4.83995,1.563062 z m 7.13557,-0.231171 c -0.76017,-1.160156 -1.07803,-4.713112 -0.51832,-5.793616 0.22738,-0.43894 0.46994,-0.5745 0.96364,-0.538521 0.36287,0.02645 0.72611,0.113941 0.80721,0.194442 0.0811,0.0805 0.20354,1.114745 0.27211,2.298328 l 0.12464,2.151965 1.10842,-2.3069 c 1.20527,-2.508485 1.64881,-2.775696 1.76235,-1.06173 0.0597,0.901532 -0.0671,1.257906 -0.88289,2.479435 -0.94385,1.413441 -2.61339,3.118282 -3.05369,3.118282 -0.12566,0 -0.38827,-0.243759 -0.58348,-0.541685 z m 6.70825,0.231171 c -2.3552,-0.887316 -2.16236,-3.765158 0.38236,-5.706082 1.09053,-0.831773 2.94769,-1.277192 3.40761,-0.817273 0.19549,0.195475 0.10427,0.263927 -0.3516,0.263927 -1.48204,0 -3.04991,2.482976 -2.625,4.157067 0.25247,0.994625 0.74308,1.363788 1.54496,1.162527 1.17436,-0.294743 1.45521,-1.962762 0.55409,-3.29065 l -0.57833,-0.852231 0.684,-0.353718 c 0.91656,-0.473969 1.10075,-0.450895 1.77387,0.222224 0.78256,0.78256 0.80561,2.536302 0.048,3.651147 -0.97866,1.440101 -3.23348,2.168293 -4.83996,1.563062 z m 6.82794,-0.05476 c -0.41648,-0.291711 -0.52148,-0.593446 -0.52148,-1.49837 0,-2.295354 2.13976,-5.059763 3.87829,-5.010481 0.79111,0.02242 0.82585,-0.0146 1.19015,-1.267681 0.43329,-1.490486 1.02092,-2.182395 1.85345,-2.182395 0.69023,0 0.69957,0.08289 0.21864,1.93892 -0.42551,1.642113 -0.53815,4.389001 -0.25983,6.336841 l 0.19345,1.353858 -0.85922,0.359002 c -1.04305,0.43582 -1.43838,0.199305 -1.66235,-0.994534 l -0.15264,-0.813671 -0.61615,0.578684 c -0.70673,0.663758 -2.14365,1.562921 -2.49972,1.564216 -0.13261,4.68e-4 -0.47578,-0.163494 -0.76259,-0.364389 z m 3.31844,-2.232812 c 0.64397,-0.506546 0.84478,-1.058676 0.3105,-0.853644 -0.22255,0.08539 -0.2802,-0.06965 -0.20825,-0.55995 0.1438,-0.979657 -0.16084,-2.371733 -0.49469,-2.260655 -0.64418,0.214332 -1.42496,3.523825 -0.94465,4.004132 0.27493,0.274938 0.7022,0.169523 1.33709,-0.329883 z m 5.80918,2.287564 c -2.35519,-0.887316 -2.16235,-3.765158 0.38236,-5.70608 1.09053,-0.831774 2.94771,-1.277193 3.40762,-0.817276 0.19548,0.195477 0.10428,0.263929 -0.35159,0.263929 -1.48204,0 -3.04992,2.482976 -2.625,4.157068 0.25247,0.994625 0.74307,1.363787 1.54496,1.162527 1.17435,-0.294744 1.45521,-1.962764 0.55408,-3.290651 l -0.57833,-0.852232 0.68401,-0.353717 c 0.91655,-0.473969 1.10073,-0.450895 1.77385,0.222224 0.78256,0.782559 0.80561,2.536302 0.048,3.651146 -0.97867,1.440101 -3.23348,2.168294 -4.83997,1.563062 z"
         id="path847"
         sodipodi:nodetypes="cssssssssssssssscssssssssscssssssscsssssssssscssssssscsccsccsssssssssssssssssssscssssssssssscsssssscssssssssssssssscsssccssscsssssscscsssssssssssssssscsssscsssssssssccsssssssssssscsssscsscsssscscsssssscsssssssssssssssssssssssssssssssssscscscsssssssssssssssssssssssssssssssscsssssssssssssssssssssssssssscccsssssssssscsssssssssssssssssscsssssssssssssssssssssssssssssssssssssssssssssssssssssssssssssssssssssscssssssssscssscssssccssssssssssssccssssssssssssssssssssssssssssssscsssssssssssccsssccsssssscssssssssssscsscccscscsssscsssssscssssssssssscsscssscsssssssssssssssscscssscscscsssssssssccsssscscsssssssssssccsscsssccsscccsssssscsscccssscscsccsscsssssscsssccssssssscsscssssssssscsssssscssscc" />
      <path
         style="fill:#778811;fill-opacity:1;stroke-width:0.264583"
         d="m 204.62816,-35.311082 c 0,-0.145521 -0.29063,-0.264584 -0.64584,-0.264584 -0.35522,0 -0.71377,-0.109902 -0.79679,-0.244226 -0.083,-0.134326 -0.51979,-0.325242 -0.97061,-0.424259 -0.45082,-0.09902 -1.04863,-0.376066 -1.32846,-0.615667 -0.27983,-0.239602 -0.59422,-0.432541 -0.69865,-0.428757 -0.54423,0.01974 -4.1297,-3.61172 -4.79692,-4.858431 -0.15635,-0.292131 -0.43473,-0.689259 -0.61864,-0.882507 -0.1839,-0.193249 -0.57163,-0.856011 -0.86162,-1.472805 -0.29,-0.616794 -0.60609,-1.122809 -0.70244,-1.124479 -0.0964,-0.0017 -0.25565,-0.479285 -0.35399,-1.061369 -0.0983,-0.582083 -0.2874,-1.058333 -0.42013,-1.058333 -0.13273,0 -0.24133,-0.297656 -0.24133,-0.661459 0,-0.363802 -0.11049,-0.661458 -0.24554,-0.661458 -0.13505,0 -0.32756,-0.656417 -0.4278,-1.458705 -0.10024,-0.802288 -0.2874,-1.523689 -0.41591,-1.603115 -0.12852,-0.07943 -0.23366,-0.613633 -0.23366,-1.187128 0,-0.573495 -0.11907,-1.042719 -0.26459,-1.042719 -0.15563,0 -0.26458,-0.926041 -0.26458,-2.248958 0,-1.322917 0.10895,-2.248958 0.26458,-2.248958 0.14552,0 0.26459,-0.238125 0.26459,-0.529167 0,-0.291042 0.11906,-0.529167 0.26458,-0.529167 0.14552,0 0.26458,-0.172534 0.26458,-0.38341 0,-0.471535 1.60716,-1.733257 2.20779,-1.733257 0.24093,0 0.43805,-0.119062 0.43805,-0.264583 0,-0.151191 0.79375,-0.264583 1.85208,-0.264583 1.05833,0 1.85208,0.113392 1.85208,0.264583 0,0.145521 0.23409,0.264583 0.52019,0.264583 0.51349,0 2.39808,0.772928 2.65481,1.088819 0.17148,0.21099 1.39614,0.619127 1.65365,0.551102 0.10914,-0.02883 0.19844,0.06664 0.19844,0.212163 0,0.145521 0.33337,0.264583 0.74083,0.264583 0.40746,0 0.86287,0.122037 1.01203,0.271193 0.1514,0.151403 1.89088,0.303488 3.93799,0.344306 2.55839,0.05101 3.69876,0.168982 3.77252,0.390265 0.0582,0.174434 0.27439,0.317153 0.48055,0.317153 0.20615,0 0.37482,0.119062 0.37482,0.264583 0,0.145521 0.15632,0.264584 0.34738,0.264584 0.19105,0 0.69707,0.373405 1.12448,0.829791 0.42741,0.456385 1.48012,1.279924 2.33935,1.830086 1.79293,1.147994 1.96346,1.086235 2.48058,-0.898352 0.1836,-0.704652 0.50994,-1.457297 0.72519,-1.672545 0.21525,-0.215249 0.39136,-0.503712 0.39136,-0.64103 0,-0.235933 1.79269,-2.088551 2.74348,-2.835194 0.24131,-0.189494 1.03243,-0.485561 1.75805,-0.657926 0.72561,-0.172365 1.3193,-0.404278 1.3193,-0.515361 0,-0.277623 5.12468,-0.256546 5.43719,0.02236 0.13824,0.123383 1.11456,0.372321 2.16958,0.553196 1.05503,0.180875 1.91823,0.412419 1.91823,0.514542 0,0.102124 0.54677,0.331917 1.21504,0.510652 0.66827,0.178735 1.40868,0.518616 1.64535,0.75529 0.39737,0.397367 0.45576,0.367967 0.76258,-0.383961 0.39381,-0.965128 3.09315,-3.761551 3.63096,-3.761551 0.20619,0 0.41458,-0.112284 0.46309,-0.249521 0.1267,-0.358467 2.43847,-0.928075 2.95781,-0.728788 0.94815,0.363841 0.47707,1.140586 -1.08368,1.78685 -1.75802,0.727944 -5.02364,3.751392 -4.2192,3.906313 0.24689,0.04755 0.44889,0.196779 0.44889,0.33163 0,0.134851 0.19538,0.245183 0.43419,0.245183 0.72602,0 2.68954,2.235799 2.88676,3.287069 0.0976,0.520446 0.28333,0.946265 0.41266,0.946265 0.3037,0 0.30891,4.421091 0.005,4.608655 -0.12634,0.07808 -0.31199,0.762245 -0.41256,1.520362 -0.31846,2.400708 -1.89722,5.171618 -4.25252,7.463673 -0.99281,0.966158 -3.79829,2.811477 -4.27435,2.811477 -0.19572,0 -0.35585,0.108058 -0.35585,0.240133 0,0.132072 -0.59532,0.392705 -1.32292,0.579186 -0.72761,0.186478 -1.32292,0.416539 -1.32292,0.511244 0,0.326411 -3.702,0.832982 -4.76946,0.652637 -0.58835,-0.0994 -1.41271,-0.469323 -1.8319,-0.822047 -0.85538,-0.719762 -2.00395,-2.55164 -2.27369,-3.626363 -0.098,-0.390385 -0.27138,-0.70979 -0.38533,-0.70979 -0.11395,0 -0.36101,-0.773907 -0.54902,-1.719792 -0.18802,-0.945886 -0.43906,-1.719792 -0.55789,-1.719792 -0.11882,0 -0.21604,-1.488281 -0.21604,-3.307292 v -3.307289 h 0.66146 c 0.3638,0 0.66145,-0.119063 0.66145,-0.264584 0,-0.162769 1.31858,-0.264583 3.42657,-0.264583 3.36285,0 6.09844,-0.356458 6.09844,-0.794652 0,-0.1219 0.33781,-0.295832 0.75069,-0.386516 1.55678,-0.341927 4.22945,-2.94365 5.29989,-5.159222 0.39299,-0.813389 0.43135,-1.067944 0.16094,-1.067944 -0.19527,0 -0.43715,0.258746 -0.53753,0.57499 -0.10037,0.316244 -0.28841,0.703197 -0.41786,0.859896 -0.12945,0.156698 -0.58388,0.73864 -1.00985,1.293204 -0.42597,0.554563 -1.22821,1.356814 -1.78278,1.782779 -0.55456,0.425965 -1.13547,0.879426 -1.29089,1.007692 -0.15543,0.128266 -0.75074,0.396943 -1.32292,0.59706 -0.57218,0.200117 -1.11405,0.465394 -1.20418,0.589504 -0.0901,0.12411 -1.81652,0.269913 -3.83645,0.324008 -4.10113,0.10983 -5.92157,0.303911 -5.92157,0.631313 0,0.120829 -0.29765,0.294396 -0.66145,0.385704 -0.61682,0.154811 -0.96257,0.949684 -0.41309,0.949684 0.1366,0 0.32894,0.537245 0.4274,1.193879 0.0985,0.656633 0.28436,1.258972 0.41309,1.338531 0.30348,0.187558 0.30689,4.61134 0.004,4.61134 -0.12677,0 -0.30947,0.595313 -0.40599,1.322917 -0.0965,0.727604 -0.29045,1.322917 -0.43096,1.322917 -0.14051,0 -0.25547,0.173368 -0.25547,0.385262 0,0.564528 -2.78455,3.277233 -3.56514,3.473146 -0.3675,0.09224 -0.6682,0.263398 -0.6682,0.380352 0,0.116953 -0.47562,0.292999 -1.05694,0.391213 -0.58132,0.09822 -1.12413,0.287274 -1.20624,0.420132 -0.0821,0.13286 -0.61852,0.241561 -1.19201,0.241561 -0.5735,0 -1.04272,0.119063 -1.04272,0.264584 0,0.164629 -1.49931,0.264583 -3.96875,0.264583 -2.46944,0 -3.96875,-0.09995 -3.96875,-0.264583 z m 11.09906,-6.869514 c 0.93849,-0.154702 1.77193,-0.368989 1.85208,-0.476193 0.0801,-0.107205 0.59222,-0.422027 1.13792,-0.699603 0.5457,-0.277577 0.99219,-0.596494 0.99219,-0.708706 0,-0.112211 0.20705,-0.411074 0.46012,-0.664139 0.57063,-0.57063 0.79007,-3.825585 0.33719,-5.001637 l -0.30565,-0.79375 -0.70885,0.862281 c -0.38987,0.474254 -0.79815,0.861207 -0.90729,0.859896 -0.10914,-0.0013 -0.19844,-0.887247 -0.19844,-1.968744 0,-1.899085 -0.0282,-1.986441 -0.82437,-2.553362 l -0.82437,-0.587003 0.32843,0.613669 c 0.41732,0.77978 0.22327,5.872969 -0.22951,6.023897 -0.16625,0.05542 -0.30226,0.269427 -0.30226,0.475581 0,0.206155 -0.11906,0.374827 -0.26459,0.374827 -0.14552,0 -0.26854,0.148828 -0.27338,0.330729 -0.0215,0.807109 -0.99994,1.521354 -2.08413,1.521354 -0.59514,0 -1.08207,-0.119063 -1.08207,-0.264583 0,-0.145521 -0.46922,-0.264584 -1.04272,-0.264584 -0.57349,0 -1.11204,-0.112183 -1.19679,-0.249296 -0.0847,-0.137113 -0.68708,-0.329226 -1.33853,-0.426917 -0.65145,-0.09769 -1.18582,-0.253398 -1.18749,-0.346016 -0.002,-0.09262 -0.50769,-0.398759 -1.12448,-0.680314 -1.3224,-0.603652 -4.35366,-3.594756 -4.5876,-4.526823 -0.0897,-0.35739 -0.26924,-0.649801 -0.39899,-0.649801 -0.12974,0 -0.2359,-0.231098 -0.2359,-0.513551 0,-0.282454 -0.11906,-0.587137 -0.26458,-0.677074 -0.14552,-0.08994 -0.26458,-0.573213 -0.26458,-1.073948 0,-0.500735 0.11906,-0.910427 0.26458,-0.910427 0.14552,0 0.26458,-0.131394 0.26458,-0.291986 0,-0.160593 0.52683,-0.773366 1.17073,-1.361719 0.98426,-0.899353 1.11369,-1.126762 0.81265,-1.427805 -0.19694,-0.19694 -0.54679,-0.358073 -0.77744,-0.358073 -0.23065,0 -0.62611,-0.113295 -0.8788,-0.251766 -0.25268,-0.138472 -0.90591,-0.449694 -1.45161,-0.691606 -0.54571,-0.241911 -0.99219,-0.53994 -0.99219,-0.662286 0,-0.122346 -0.44649,-0.295942 -0.99219,-0.385769 -0.5457,-0.08983 -1.24075,-0.28359 -1.54454,-0.430584 -0.3038,-0.146994 -0.89911,-0.227722 -1.32292,-0.179396 -0.76963,0.08776 -0.77056,0.09011 -0.76736,1.939949 0.003,1.684783 0.50903,3.571875 0.95798,3.571875 0.0938,0 0.24873,0.416718 0.34428,0.926041 0.0955,0.509323 0.28739,0.926042 0.42632,0.926042 0.13893,0 0.25259,0.238125 0.25259,0.529167 0,0.291041 0.10961,0.529166 0.24356,0.529166 0.13396,0 0.32202,0.357188 0.4179,0.79375 0.0959,0.436563 0.28394,0.79375 0.4179,0.79375 0.13396,0 0.24356,0.178594 0.24356,0.396875 0,0.218282 0.13891,0.396875 0.30868,0.396875 0.16978,0 0.23282,0.07586 0.14011,0.168572 -0.14468,0.14468 0.0769,0.534905 1.18114,2.080387 1.57529,2.204709 5.60103,5.159375 7.02964,5.159375 0.33047,0 0.60085,0.106036 0.60085,0.235636 0,0.277223 1.54228,0.559879 3.04271,0.557644 0.58208,-8.73e-4 1.23692,0.121619 1.4552,0.272191 0.21828,0.150572 0.75406,0.216491 1.19063,0.146487 0.43656,-0.07 1.5616,-0.253854 2.5001,-0.408555 z"
         id="path843"
         sodipodi:nodetypes="sssssssssccssssssssssssssssssssssscsssssssssssssssssssssssscscssssssssssssscsssssssssssssssssscssssssssssssssscsssscsssscsssssssscscssssssssssssssssscscsssssssscssssss" />
    </g>
  </g>
</svg>
